<?xml version="1.0" encoding="UTF-8" standalone="no"?>
<!-- Created with Inkscape (http://www.inkscape.org/) -->

<svg
   width="232.94966mm"
   height="231.23682mm"
   viewBox="0 0 232.94967 231.23682"
   version="1.1"
   id="svg5"
   inkscape:version="1.1.2 (b8e25be833, 2022-02-05)"
   sodipodi:docname="reset.svg"
   xmlns:inkscape="http://www.inkscape.org/namespaces/inkscape"
   xmlns:sodipodi="http://sodipodi.sourceforge.net/DTD/sodipodi-0.dtd"
   xmlns="http://www.w3.org/2000/svg"
   xmlns:svg="http://www.w3.org/2000/svg">
  <sodipodi:namedview
     id="namedview7"
     pagecolor="#ffffff"
     bordercolor="#999999"
     borderopacity="1"
     inkscape:pageshadow="0"
     inkscape:pageopacity="0"
     inkscape:pagecheckerboard="0"
     inkscape:document-units="mm"
     showgrid="false"
     inkscape:lockguides="false"
     inkscape:zoom="0.27393729"
     inkscape:cx="38.32994"
     inkscape:cy="565.82293"
     inkscape:window-width="1366"
     inkscape:window-height="705"
     inkscape:window-x="-8"
     inkscape:window-y="-8"
     inkscape:window-maximized="1"
     inkscape:current-layer="layer1" />
  <defs
     id="defs2" />
  <g
     inkscape:label="Layer 1"
     inkscape:groupmode="layer"
     id="layer1"
     transform="translate(-141.15153,46.951153)">
    <g
       style="fill:#ffffff;fill-opacity:1;stroke:#ffffff;stroke-width:47.0337;stroke-miterlimit:4;stroke-dasharray:none;stroke-opacity:1"
       id="g835"
       transform="matrix(-0.43204782,-0.01434735,0.01434735,-0.43204782,359.17968,177.86317)">
      <g
         id="g826"
         style="fill:#ffffff;fill-opacity:1;stroke:#ffffff;stroke-width:47.0337;stroke-miterlimit:4;stroke-dasharray:none;stroke-opacity:1">
	<path
   d="m 460.656,132.911 c -58.7,-122.1 -212.2,-166.5 -331.8,-104.1 -9.4,5.2 -13.5,16.6 -8.3,27 5.2,9.4 16.6,13.5 27,8.3 99.9,-52 227.4,-14.9 276.7,86.3 65.4,134.3 -19,236.7 -87.4,274.6 -93.1,51.7 -211.2,17.4 -267.6,-70.7 l 69.3,14.5 c 10.4,2.1 21.8,-4.2 23.9,-15.6 2.1,-10.4 -4.2,-21.8 -15.6,-23.9 l -122.8,-25 c -20.6,-2 -25,16.6 -23.9,22.9 l 15.6,123.8 c 1,10.4 9.4,17.7 19.8,17.7 12.8,0 20.8,-12.5 19.8,-23.9 l -6,-50.5 c 57.4,70.8 170.3,131.2 307.4,68.2 58.1,-30 191.5,-147.7 103.9,-329.6 z"
   id="path824"
   style="fill:#ffffff;fill-opacity:1;stroke:#ffffff;stroke-width:47.0337;stroke-miterlimit:4;stroke-dasharray:none;stroke-opacity:1" />

</g>
    </g>
  </g>
</svg>
